<svg width="120" height="120" viewBox="0 0 120 120" fill="none" xmlns="http://www.w3.org/2000/svg">
<g clip-path="url(#clip0)">
<path d="M18.75 86.25H3.75C2.75544 86.25 1.80161 86.6451 1.09835 87.3483C0.395088 88.0516 0 89.0054 0 90L0 105C0 105.995 0.395088 106.948 1.09835 107.652C1.80161 108.355 2.75544 108.75 3.75 108.75H18.75C19.7446 108.75 20.6984 108.355 21.4016 107.652C22.1049 106.948 22.5 105.995 22.5 105V90C22.5 89.0054 22.1049 88.0516 21.4016 87.3483C20.6984 86.6451 19.7446 86.25 18.75 86.25ZM18.75 11.25H3.75C2.75544 11.25 1.80161 11.6451 1.09835 12.3483C0.395088 13.0516 0 14.0054 0 15L0 30C0 30.9946 0.395088 31.9484 1.09835 32.6516C1.80161 33.3549 2.75544 33.75 3.75 33.75H18.75C19.7446 33.75 20.6984 33.3549 21.4016 32.6516C22.1049 31.9484 22.5 30.9946 22.5 30V15C22.5 14.0054 22.1049 13.0516 21.4016 12.3483C20.6984 11.6451 19.7446 11.25 18.75 11.25ZM18.75 48.75H3.75C2.75544 48.75 1.80161 49.1451 1.09835 49.8484C0.395088 50.5516 0 51.5054 0 52.5L0 67.5C0 68.4946 0.395088 69.4484 1.09835 70.1517C1.80161 70.8549 2.75544 71.25 3.75 71.25H18.75C19.7446 71.25 20.6984 70.8549 21.4016 70.1517C22.1049 69.4484 22.5 68.4946 22.5 67.5V52.5C22.5 51.5054 22.1049 50.5516 21.4016 49.8484C20.6984 49.1451 19.7446 48.75 18.75 48.75ZM116.25 90H41.25C40.2554 90 39.3016 90.3951 38.5984 91.0983C37.8951 91.8016 37.5 92.7554 37.5 93.75V101.25C37.5 102.245 37.8951 103.198 38.5984 103.902C39.3016 104.605 40.2554 105 41.25 105H116.25C117.245 105 118.198 104.605 118.902 103.902C119.605 103.198 120 102.245 120 101.25V93.75C120 92.7554 119.605 91.8016 118.902 91.0983C118.198 90.3951 117.245 90 116.25 90ZM116.25 15H41.25C40.2554 15 39.3016 15.3951 38.5984 16.0984C37.8951 16.8016 37.5 17.7554 37.5 18.75V26.25C37.5 27.2446 37.8951 28.1984 38.5984 28.9016C39.3016 29.6049 40.2554 30 41.25 30H116.25C117.245 30 118.198 29.6049 118.902 28.9016C119.605 28.1984 120 27.2446 120 26.25V18.75C120 17.7554 119.605 16.8016 118.902 16.0984C118.198 15.3951 117.245 15 116.25 15ZM116.25 52.5H41.25C40.2554 52.5 39.3016 52.8951 38.5984 53.5984C37.8951 54.3016 37.5 55.2554 37.5 56.25V63.75C37.5 64.7446 37.8951 65.6984 38.5984 66.4017C39.3016 67.1049 40.2554 67.5 41.25 67.5H116.25C117.245 67.5 118.198 67.1049 118.902 66.4017C119.605 65.6984 120 64.7446 120 63.75V56.25C120 55.2554 119.605 54.3016 118.902 53.5984C118.198 52.8951 117.245 52.5 116.25 52.5Z" fill="#EBFBEF"/>
</g>
<defs>
<clipPath id="clip0">
<rect width="120" height="120" fill="white"/>
</clipPath>
</defs>
</svg>
