<svg width="120" height="120" viewBox="0 0 120 120" fill="none" xmlns="http://www.w3.org/2000/svg">
<path d="M117 48.75H105V33.75C105 31.6875 103.65 30 102 30H96C94.35 30 93 31.6875 93 33.75V48.75H81C79.35 48.75 78 50.4375 78 52.5V60C78 62.0625 79.35 63.75 81 63.75H93V78.75C93 80.8125 94.35 82.5 96 82.5H102C103.65 82.5 105 80.8125 105 78.75V63.75H117C118.65 63.75 120 62.0625 120 60V52.5C120 50.4375 118.65 48.75 117 48.75ZM42 60C55.2562 60 66 46.5703 66 30C66 13.4297 55.2562 0 42 0C28.7438 0 18 13.4297 18 30C18 46.5703 28.7438 60 42 60ZM58.8 67.5H55.6687C51.5062 69.8906 46.875 71.25 42 71.25C37.125 71.25 32.5125 69.8906 28.3313 67.5H25.2C11.2875 67.5 0 81.6094 0 99V108.75C0 114.961 4.03125 120 9 120H75C79.9688 120 84 114.961 84 108.75V99C84 81.6094 72.7125 67.5 58.8 67.5Z" fill="#EBFBEF"/>
</svg>
