<svg width="120" height="120" viewBox="0 0 120 120" fill="none" xmlns="http://www.w3.org/2000/svg">
<path d="M63.1315 0C38.188 0 22.0321 7.66477 9.34802 21.3342C7.04708 23.8139 7.75645 27.2138 10.9661 29.0391L24.4468 36.7052C27.6883 38.5486 32.3005 38.1176 34.8383 35.733C42.6661 28.3781 48.4727 24.1434 60.6999 24.1434C70.3136 24.1434 82.2049 28.7838 82.2049 35.7757C82.2049 41.0613 76.3871 43.7759 66.8946 47.7673C55.8249 52.422 41.1761 58.2148 41.1761 72.7059V75C41.1761 78.1066 44.534 80.625 48.6761 80.625H71.3233C75.4655 80.625 78.8233 78.1066 78.8233 75V73.647C78.8233 63.6016 117.97 63.1833 117.97 36C117.97 15.5288 89.6568 0 63.1315 0ZM59.9999 87.5295C48.0636 87.5295 38.3527 94.8127 38.3527 103.765C38.3527 112.717 48.0636 120 59.9999 120C71.9361 120 81.6471 112.717 81.6471 103.765C81.6471 94.8124 71.9361 87.5295 59.9999 87.5295Z" fill="#EBFBEF"/>
</svg>
