<svg width="120" height="120" viewBox="0 0 120 120" fill="none" xmlns="http://www.w3.org/2000/svg">
<g clip-path="url(#clip0)">
<path d="M118.359 103.758L94.9922 80.3906C93.9375 79.3359 92.5078 78.75 91.0078 78.75H87.1875C93.6562 70.4766 97.5 60.0703 97.5 48.75C97.5 21.8203 75.6797 0 48.75 0C21.8203 0 0 21.8203 0 48.75C0 75.6797 21.8203 97.5 48.75 97.5C60.0703 97.5 70.4766 93.6562 78.75 87.1875V91.0078C78.75 92.5078 79.3359 93.9375 80.3906 94.9922L103.758 118.359C105.961 120.562 109.523 120.562 111.703 118.359L118.336 111.727C120.539 109.523 120.539 105.961 118.359 103.758ZM48.75 78.75C32.1797 78.75 18.75 65.3438 18.75 48.75C18.75 32.1797 32.1562 18.75 48.75 18.75C65.3203 18.75 78.75 32.1562 78.75 48.75C78.75 65.3203 65.3438 78.75 48.75 78.75Z" fill="#EBFBEF"/>
</g>
<defs>
<clipPath id="clip0">
<rect width="120" height="120" fill="white"/>
</clipPath>
</defs>
</svg>
