<svg width="504" height="161" viewBox="0 0 504 161" fill="none" xmlns="http://www.w3.org/2000/svg">
<path d="M114.02 36.88C119.387 36.88 123.89 38.1633 127.53 40.73C131.217 43.25 133.947 46.47 135.72 50.39C137.493 54.31 138.38 58.3467 138.38 62.5C138.38 66.56 137.447 70.5733 135.58 74.54C133.713 78.46 130.913 81.7033 127.18 84.27C123.493 86.8367 119.037 88.12 113.81 88.12C108.21 88.12 103.59 86.8833 99.95 84.41C96.31 81.9367 93.65 78.7633 91.97 74.89C90.29 71.0167 89.45 66.8867 89.45 62.5C89.45 58.3467 90.3833 54.31 92.25 50.39C94.1167 46.47 96.8933 43.25 100.58 40.73C104.313 38.1633 108.793 36.88 114.02 36.88ZM113.46 41.99C110.38 41.99 107.86 42.97 105.9 44.93C103.94 46.89 102.54 49.3633 101.7 52.35C100.86 55.3367 100.44 58.44 100.44 61.66C100.44 64.9267 100.907 68.1933 101.84 71.46C102.773 74.7267 104.29 77.48 106.39 79.72C108.537 81.9133 111.243 83.01 114.51 83.01C117.543 83.01 120.017 82.0533 121.93 80.14C123.843 78.2267 125.22 75.8 126.06 72.86C126.9 69.92 127.32 66.8633 127.32 63.69C127.32 57.0633 126.153 51.79 123.82 47.87C121.487 43.95 118.033 41.99 113.46 41.99ZM164.179 37.86C170.572 37.8133 175.495 38.9333 178.949 41.22C182.449 43.5067 184.199 47.2167 184.199 52.35C184.199 55.57 183.149 58.44 181.049 60.96C178.995 63.4333 175.939 65.2533 171.879 66.42V66.49C172.719 66.8167 173.582 67.4 174.469 68.24C175.355 69.0333 176.102 69.92 176.709 70.9L179.999 75.8C181.585 78.2733 182.892 79.9767 183.919 80.91C184.992 81.8433 186.299 82.3333 187.839 82.38V87H176.289C175.495 86.44 174.702 85.6467 173.909 84.62C173.115 83.5467 172.205 82.1467 171.179 80.42L165.999 72.02C164.832 70.1533 163.852 68.8 163.059 67.96H159.419V75.45C159.419 78.11 159.325 80.2333 159.139 81.82C160.632 81.68 162.615 81.61 165.089 81.61V87H144.299V82.38C145.559 82.3333 146.515 82.1933 147.169 81.96C147.822 81.68 148.335 81.12 148.709 80.28C149.082 79.44 149.269 78.11 149.269 76.29V49.48C149.269 46.8667 149.362 44.7667 149.549 43.18L144.299 43.39V38L164.179 37.86ZM164.109 42.76C162.475 42.76 161.285 43.11 160.539 43.81C159.792 44.51 159.419 46.0033 159.419 48.29V62.64C160.819 62.8267 161.939 62.92 162.779 62.92C166.605 62.92 169.359 62.08 171.039 60.4C172.765 58.6733 173.629 55.99 173.629 52.35C173.629 48.4767 172.625 45.91 170.619 44.65C168.659 43.39 166.489 42.76 164.109 42.76ZM215.737 36.88C217.604 36.88 219.61 37.1833 221.757 37.79C223.95 38.3967 225.957 39.2367 227.777 40.31H227.847L227.567 37.37H232.957V53.68H228.407C227.147 45.9333 223.227 42.0133 216.647 41.92C213.52 41.92 210.86 42.8533 208.667 44.72C206.52 46.54 204.91 48.9667 203.837 52C202.764 55.0333 202.227 58.3 202.227 61.8C202.227 65.8133 202.81 69.3833 203.977 72.51C205.144 75.6367 206.824 78.0867 209.017 79.86C211.21 81.5867 213.847 82.45 216.927 82.45C219.914 82.45 222.83 81.68 225.677 80.14C228.57 78.6 230.997 76.5 232.957 73.84L236.317 76.92C233.237 81.1667 229.854 84.1067 226.167 85.74C222.48 87.3267 218.84 88.12 215.247 88.12C210.534 88.12 206.357 87.0233 202.717 84.83C199.077 82.6367 196.254 79.65 194.247 75.87C192.24 72.0433 191.237 67.82 191.237 63.2C191.237 58.7667 192.17 54.5433 194.037 50.53C195.95 46.47 198.75 43.18 202.437 40.66C206.124 38.14 210.557 36.88 215.737 36.88ZM277.44 74.89C277.814 75.8233 278.21 76.99 278.63 78.39C279.05 79.7433 279.307 80.8867 279.4 81.82C280.94 81.68 282.294 81.61 283.46 81.61V87H264.63V82.38C266.87 82.38 267.99 81.4467 267.99 79.58C267.99 78.6467 267.734 77.5267 267.22 76.22L265.82 72.37L250.63 72.65L249.51 75.94C249.37 76.3133 249.044 77.1533 248.53 78.46C248.064 79.7667 247.644 80.8167 247.27 81.61C248.764 81.47 250.42 81.4 252.24 81.4V87H237.26V82.17C238.474 82.17 239.477 81.82 240.27 81.12C241.11 80.42 241.764 79.58 242.23 78.6C242.697 77.5733 243.28 76.1033 243.98 74.19L257.63 36.74H262.53L277.44 74.89ZM258.12 49.06C257.374 52.42 256.51 55.5 255.53 58.3L252.38 67.4H264.07L260.85 58.65C259.497 54.8233 258.61 51.6267 258.19 49.06H258.12Z" fill="#44C767"/>
<path d="M303.128 36.88C305.135 36.88 307.235 37.1833 309.428 37.79C311.622 38.35 313.442 39.1667 314.888 40.24H314.958L314.678 37.37H320.138V53.68H315.518C314.912 49.8533 313.558 46.9367 311.458 44.93C309.405 42.9233 306.768 41.92 303.548 41.92C301.448 41.92 299.628 42.5033 298.088 43.67C296.595 44.79 295.848 46.2133 295.848 47.94C295.848 49.9933 296.712 51.72 298.438 53.12C300.165 54.52 303.082 56.06 307.188 57.74C311.902 59.6067 315.728 61.7767 318.668 64.25C321.655 66.6767 323.148 69.92 323.148 73.98C323.148 76.7333 322.402 79.1833 320.908 81.33C319.415 83.4767 317.315 85.1567 314.608 86.37C311.902 87.5367 308.775 88.12 305.228 88.12C303.315 88.12 301.262 87.8167 299.068 87.21C296.922 86.6033 294.938 85.7633 293.118 84.69H293.048L293.258 87.63H287.868V71.25H292.488C293.095 75.0767 294.565 78.0167 296.898 80.07C299.232 82.0767 302.078 83.08 305.438 83.08C307.865 83.08 309.872 82.45 311.458 81.19C313.045 79.8833 313.838 78.32 313.838 76.5C313.838 75.0067 313.302 73.7233 312.228 72.65C311.202 71.5767 310.035 70.7367 308.728 70.13C307.468 69.5233 305.438 68.66 302.638 67.54C297.505 65.4867 293.562 63.1533 290.808 60.54C288.102 57.9267 286.748 54.4967 286.748 50.25C286.748 48.1033 287.285 46.0267 288.358 44.02C289.432 41.9667 291.182 40.2633 293.608 38.91C296.082 37.5567 299.255 36.88 303.128 36.88ZM371.984 42.62C370.351 42.8533 368.951 43.53 367.784 44.65C366.618 45.7233 365.358 47.5433 364.004 50.11L354.904 67.61V75.52C354.904 78.1333 354.811 80.2333 354.624 81.82C356.164 81.68 358.031 81.61 360.224 81.61V87H339.784V82.38C341.044 82.3333 342.001 82.1933 342.654 81.96C343.308 81.68 343.821 81.12 344.194 80.28C344.568 79.44 344.754 78.11 344.754 76.29V70.2L331.874 49.83C331.174 48.6633 330.544 47.45 329.984 46.19C329.471 44.93 329.214 43.9267 329.214 43.18L325.784 43.39V38H346.434V42.62C344.941 42.5267 343.728 42.7133 342.794 43.18C341.908 43.6467 341.464 44.37 341.464 45.35C341.464 46.19 341.744 47.0767 342.304 48.01L347.624 56.76C347.764 56.9933 348.278 57.9033 349.164 59.49C350.098 61.0767 350.774 62.43 351.194 63.55H351.264C351.404 63.2233 351.568 62.8733 351.754 62.5C351.941 62.08 352.151 61.6133 352.384 61.1C353.551 58.7667 354.274 57.2967 354.554 56.69L358.194 49.55C359.641 46.47 360.878 44.3467 361.904 43.18V43.11L358.264 43.32L356.514 43.39V38H371.984V42.62ZM391.654 36.88C393.66 36.88 395.76 37.1833 397.954 37.79C400.147 38.35 401.967 39.1667 403.414 40.24H403.484L403.204 37.37H408.664V53.68H404.044C403.437 49.8533 402.084 46.9367 399.984 44.93C397.93 42.9233 395.294 41.92 392.074 41.92C389.974 41.92 388.154 42.5033 386.614 43.67C385.12 44.79 384.374 46.2133 384.374 47.94C384.374 49.9933 385.237 51.72 386.964 53.12C388.69 54.52 391.607 56.06 395.714 57.74C400.427 59.6067 404.254 61.7767 407.194 64.25C410.18 66.6767 411.674 69.92 411.674 73.98C411.674 76.7333 410.927 79.1833 409.434 81.33C407.94 83.4767 405.84 85.1567 403.134 86.37C400.427 87.5367 397.3 88.12 393.754 88.12C391.84 88.12 389.787 87.8167 387.594 87.21C385.447 86.6033 383.464 85.7633 381.644 84.69H381.574L381.784 87.63H376.394V71.25H381.014C381.62 75.0767 383.09 78.0167 385.424 80.07C387.757 82.0767 390.604 83.08 393.964 83.08C396.39 83.08 398.397 82.45 399.984 81.19C401.57 79.8833 402.364 78.32 402.364 76.5C402.364 75.0067 401.827 73.7233 400.754 72.65C399.727 71.5767 398.56 70.7367 397.254 70.13C395.994 69.5233 393.964 68.66 391.164 67.54C386.03 65.4867 382.087 63.1533 379.334 60.54C376.627 57.9267 375.274 54.4967 375.274 50.25C375.274 48.1033 375.81 46.0267 376.884 44.02C377.957 41.9667 379.707 40.2633 382.134 38.91C384.607 37.5567 387.78 36.88 391.654 36.88Z" fill="white"/>
<path d="M8.31 100.461C9.17 100.461 10.07 100.591 11.01 100.851C11.95 101.091 12.73 101.441 13.35 101.901H13.38L13.26 100.671H15.6V107.661H13.62C13.36 106.021 12.78 104.771 11.88 103.911C11 103.051 9.87 102.621 8.49 102.621C7.59 102.621 6.81 102.871 6.15 103.371C5.51 103.851 5.19 104.461 5.19 105.201C5.19 106.081 5.56 106.821 6.3 107.421C7.04 108.021 8.29 108.681 10.05 109.401C12.07 110.201 13.71 111.131 14.97 112.191C16.25 113.231 16.89 114.621 16.89 116.361C16.89 117.541 16.57 118.591 15.93 119.511C15.29 120.431 14.39 121.151 13.23 121.671C12.07 122.171 10.73 122.421 9.21 122.421C8.39 122.421 7.51 122.291 6.57 122.031C5.65 121.771 4.8 121.411 4.02 120.951H3.99L4.08 122.211H1.77V115.191H3.75C4.01 116.831 4.64 118.091 5.64 118.971C6.64 119.831 7.86 120.261 9.3 120.261C10.34 120.261 11.2 119.991 11.88 119.451C12.56 118.891 12.9 118.221 12.9 117.441C12.9 116.801 12.67 116.251 12.21 115.791C11.77 115.331 11.27 114.971 10.71 114.711C10.17 114.451 9.3 114.081 8.1 113.601C5.9 112.721 4.21 111.721 3.03 110.601C1.87 109.481 1.29 108.011 1.29 106.191C1.29 105.271 1.52 104.381 1.98 103.521C2.44 102.641 3.19 101.911 4.23 101.331C5.29 100.751 6.65 100.461 8.31 100.461ZM23.1797 101.121C23.7997 101.121 24.3197 101.341 24.7397 101.781C25.1597 102.221 25.3697 102.761 25.3697 103.401C25.3697 104.021 25.1697 104.541 24.7697 104.961C24.3697 105.381 23.8497 105.591 23.2097 105.591C22.5497 105.591 22.0097 105.381 21.5897 104.961C21.1697 104.541 20.9597 104.021 20.9597 103.401C20.9597 102.781 21.1797 102.251 21.6197 101.811C22.0597 101.351 22.5797 101.121 23.1797 101.121ZM24.9497 117.561C24.9497 118.421 24.9097 119.221 24.8297 119.961C25.4297 119.901 26.0597 119.871 26.7197 119.871V121.941H19.1597V120.171C19.8797 120.171 20.3397 119.981 20.5397 119.601C20.7397 119.221 20.8397 118.601 20.8397 117.741V113.211C20.8397 112.351 20.8797 111.561 20.9597 110.841L18.9497 110.931V108.861C20.1497 108.861 21.1297 108.781 21.8897 108.621C22.6497 108.441 23.1497 108.241 23.3897 108.021H24.9497V117.561ZM34.0512 107.871C34.6112 107.871 35.2112 107.951 35.8512 108.111C36.5112 108.271 37.0612 108.501 37.5012 108.801H37.5312L37.5012 107.991H39.6912V112.821H37.8312C37.6512 111.901 37.2012 111.171 36.4812 110.631C35.7812 110.071 34.9112 109.791 33.8712 109.791C33.3312 109.791 32.8712 109.911 32.4912 110.151C32.1312 110.371 31.9512 110.731 31.9512 111.231C31.9512 111.751 32.1712 112.141 32.6112 112.401C33.0712 112.641 33.8312 112.911 34.8912 113.211L35.4912 113.391C37.1312 113.931 38.3812 114.571 39.2412 115.311C40.1212 116.031 40.5612 116.991 40.5612 118.191C40.5612 119.531 40.0412 120.571 39.0012 121.311C37.9812 122.031 36.7512 122.391 35.3112 122.391C34.4712 122.391 33.6612 122.291 32.8812 122.091C32.1012 121.891 31.4812 121.631 31.0212 121.311H30.9912L31.0812 122.121H28.8912L28.7712 117.441H30.6612C30.7612 118.281 31.2212 118.991 32.0412 119.571C32.8812 120.131 33.9112 120.411 35.1312 120.411C35.6712 120.411 36.1412 120.301 36.5412 120.081C36.9412 119.841 37.1412 119.501 37.1412 119.061C37.1412 118.721 37.0112 118.441 36.7512 118.221C36.5112 118.001 36.2112 117.821 35.8512 117.681C35.4912 117.521 34.8012 117.261 33.7812 116.901C32.5812 116.461 31.6612 116.091 31.0212 115.791C30.4012 115.491 29.8412 115.051 29.3412 114.471C28.8612 113.891 28.6212 113.151 28.6212 112.251C28.6212 111.511 28.8112 110.811 29.1912 110.151C29.5912 109.471 30.2012 108.921 31.0212 108.501C31.8412 108.081 32.8512 107.871 34.0512 107.871ZM51.7437 108.291V110.391L48.0837 110.481L48.0537 117.201C48.0537 118.961 48.6337 119.841 49.7937 119.841C50.7137 119.841 51.5937 119.291 52.4337 118.191L53.8137 119.421C52.9137 120.681 52.0037 121.491 51.0837 121.851C50.1837 122.211 49.3037 122.391 48.4437 122.391C45.4437 122.391 43.9437 120.641 43.9437 117.141L44.0037 110.571H42.0237V108.291C42.9237 108.291 43.7437 107.931 44.4837 107.211C45.2237 106.491 45.7237 105.721 45.9837 104.901H48.1137L48.0837 108.291H51.7437ZM61.6268 107.871C63.4868 107.871 65.0368 108.391 66.2768 109.431C67.5168 110.471 68.1268 112.191 68.1068 114.591L58.6268 114.771C58.6268 116.371 58.9468 117.641 59.5868 118.581C60.2468 119.501 61.2868 119.961 62.7068 119.961C63.3668 119.961 64.0868 119.791 64.8668 119.451C65.6468 119.111 66.3468 118.591 66.9668 117.891L68.2568 119.061C66.6168 121.281 64.3768 122.391 61.5368 122.391C60.1168 122.391 58.8668 122.101 57.7868 121.521C56.7268 120.921 55.8968 120.081 55.2968 119.001C54.6968 117.901 54.3968 116.621 54.3968 115.161C54.3968 113.881 54.6968 112.681 55.2968 111.561C55.8968 110.441 56.7468 109.551 57.8468 108.891C58.9468 108.211 60.2068 107.871 61.6268 107.871ZM61.7468 109.791C60.9268 109.791 60.2668 110.061 59.7668 110.601C59.2868 111.141 58.9668 111.891 58.8068 112.851H64.1168C64.0568 110.811 63.2668 109.791 61.7468 109.791ZM88.6127 107.871C90.2127 107.871 91.4027 108.311 92.1827 109.191C92.9627 110.051 93.3527 111.501 93.3527 113.541V117.561C93.3527 118.421 93.3127 119.221 93.2327 119.961C93.8327 119.901 94.4627 119.871 95.1227 119.871V121.941H87.8027V120.171C88.4027 120.171 88.7927 119.981 88.9727 119.601C89.1527 119.201 89.2427 118.581 89.2427 117.741V113.571C89.2227 112.451 89.0227 111.651 88.6427 111.171C88.2827 110.691 87.7527 110.431 87.0527 110.391C86.1527 110.391 85.2927 110.691 84.4727 111.291C84.6527 112.031 84.7427 112.901 84.7427 113.901V117.561C84.7427 118.421 84.7027 119.221 84.6227 119.961C85.2227 119.901 85.8527 119.871 86.5127 119.871V121.941H79.0427V120.171C79.7227 120.171 80.1527 119.981 80.3327 119.601C80.5327 119.201 80.6327 118.581 80.6327 117.741L80.6027 113.481C80.6027 112.341 80.4227 111.541 80.0627 111.081C79.7227 110.621 79.2127 110.391 78.5327 110.391C77.6727 110.391 76.8527 110.721 76.0727 111.381V117.561C76.0727 118.421 76.0327 119.221 75.9527 119.961C76.5527 119.901 77.1327 119.871 77.6927 119.871V121.941H70.2827V120.171C71.0027 120.171 71.4627 119.981 71.6627 119.601C71.8627 119.221 71.9627 118.601 71.9627 117.741V113.151C71.9627 112.331 72.0027 111.561 72.0827 110.841L70.0727 110.931V108.861C71.2727 108.861 72.2527 108.781 73.0127 108.621C73.7727 108.441 74.2727 108.241 74.5127 108.021H75.9227C75.9227 108.061 75.9627 108.521 76.0427 109.401H76.1027C76.7027 108.961 77.3727 108.601 78.1127 108.321C78.8727 108.021 79.6127 107.871 80.3327 107.871C82.0327 107.871 83.2227 108.471 83.9027 109.671C84.6027 109.131 85.3727 108.701 86.2127 108.381C87.0527 108.041 87.8527 107.871 88.6127 107.871ZM103.304 107.871C106.864 107.871 108.644 109.611 108.644 113.091L108.614 117.561C108.614 118.421 108.574 119.221 108.494 119.961C109.134 119.901 109.764 119.871 110.384 119.871V121.941H104.924C104.884 121.701 104.844 121.281 104.804 120.681H104.774C103.614 121.821 102.194 122.391 100.514 122.391C99.2936 122.391 98.3336 122.051 97.6336 121.371C96.9336 120.691 96.5836 119.821 96.5836 118.761C96.5836 117.161 97.3636 115.951 98.9236 115.131C100.504 114.291 102.404 113.821 104.624 113.721V112.311C104.624 110.651 103.954 109.821 102.614 109.821C102.234 109.821 101.864 109.891 101.504 110.031C101.144 110.171 100.844 110.361 100.604 110.601C100.824 110.861 100.934 111.201 100.934 111.621C100.934 112.061 100.774 112.461 100.454 112.821C100.134 113.161 99.6736 113.331 99.0736 113.331C98.4936 113.331 98.0336 113.161 97.6936 112.821C97.3736 112.461 97.2136 112.011 97.2136 111.471C97.2136 110.771 97.4836 110.151 98.0236 109.611C98.5636 109.051 99.2936 108.621 100.214 108.321C101.154 108.021 102.184 107.871 103.304 107.871ZM104.594 115.671C103.454 115.771 102.514 116.051 101.774 116.511C101.034 116.951 100.664 117.531 100.664 118.251C100.664 118.731 100.824 119.091 101.144 119.331C101.464 119.571 101.854 119.691 102.314 119.691C103.194 119.691 103.954 119.371 104.594 118.731V115.671ZM134.408 117.561C134.408 118.421 134.368 119.221 134.288 119.961C134.928 119.901 135.558 119.871 136.178 119.871V121.941H130.688L130.538 120.681H130.508C129.368 121.821 128.008 122.391 126.428 122.391C125.288 122.391 124.278 122.111 123.398 121.551C122.518 120.971 121.828 120.161 121.328 119.121C120.848 118.081 120.608 116.871 120.608 115.491C120.608 114.031 120.908 112.721 121.508 111.561C122.108 110.401 122.948 109.501 124.028 108.861C125.108 108.201 126.358 107.871 127.778 107.871C128.518 107.871 129.368 108.031 130.328 108.351V106.551C130.328 105.691 130.368 104.891 130.448 104.151C129.828 104.211 129.148 104.241 128.408 104.241V102.171C129.608 102.171 130.588 102.091 131.348 101.931C132.108 101.751 132.608 101.561 132.848 101.361H134.408V117.561ZM128.288 109.881C127.048 109.901 126.158 110.401 125.618 111.381C125.098 112.361 124.838 113.591 124.838 115.071C124.838 116.371 125.098 117.501 125.618 118.461C126.138 119.421 126.908 119.901 127.928 119.901C128.408 119.901 128.858 119.781 129.278 119.541C129.718 119.301 130.068 118.981 130.328 118.581V110.391C130.128 110.251 129.838 110.131 129.458 110.031C129.078 109.931 128.688 109.881 128.288 109.881ZM145.094 107.871C146.954 107.871 148.504 108.391 149.744 109.431C150.984 110.471 151.594 112.191 151.574 114.591L142.094 114.771C142.094 116.371 142.414 117.641 143.054 118.581C143.714 119.501 144.754 119.961 146.174 119.961C146.834 119.961 147.554 119.791 148.334 119.451C149.114 119.111 149.814 118.591 150.434 117.891L151.724 119.061C150.084 121.281 147.844 122.391 145.004 122.391C143.584 122.391 142.334 122.101 141.254 121.521C140.194 120.921 139.364 120.081 138.764 119.001C138.164 117.901 137.864 116.621 137.864 115.161C137.864 113.881 138.164 112.681 138.764 111.561C139.364 110.441 140.214 109.551 141.314 108.891C142.414 108.211 143.674 107.871 145.094 107.871ZM145.214 109.791C144.394 109.791 143.734 110.061 143.234 110.601C142.754 111.141 142.434 111.891 142.274 112.851H147.584C147.524 110.811 146.734 109.791 145.214 109.791ZM172.859 100.461C173.659 100.461 174.519 100.591 175.439 100.851C176.379 101.111 177.239 101.471 178.019 101.931H178.049L177.929 100.671H180.239V107.661H178.289C177.749 104.341 176.069 102.661 173.249 102.621C171.909 102.621 170.769 103.021 169.829 103.821C168.909 104.601 168.219 105.641 167.759 106.941C167.299 108.241 167.069 109.641 167.069 111.141C167.069 112.861 167.319 114.391 167.819 115.731C168.319 117.071 169.039 118.121 169.979 118.881C170.919 119.621 172.049 119.991 173.369 119.991C174.649 119.991 175.899 119.661 177.119 119.001C178.359 118.341 179.399 117.441 180.239 116.301L181.679 117.621C180.359 119.441 178.909 120.701 177.329 121.401C175.749 122.081 174.189 122.421 172.649 122.421C170.629 122.421 168.839 121.951 167.279 121.011C165.719 120.071 164.509 118.791 163.649 117.171C162.789 115.531 162.359 113.721 162.359 111.741C162.359 109.841 162.759 108.031 163.559 106.311C164.379 104.571 165.579 103.161 167.159 102.081C168.739 101.001 170.639 100.461 172.859 100.461ZM190.183 107.871C191.563 107.871 192.803 108.161 193.903 108.741C195.023 109.301 195.893 110.111 196.513 111.171C197.153 112.231 197.473 113.471 197.473 114.891C197.473 116.391 197.163 117.711 196.543 118.851C195.943 119.971 195.093 120.841 193.993 121.461C192.913 122.081 191.673 122.391 190.273 122.391C188.873 122.391 187.613 122.111 186.493 121.551C185.373 120.971 184.493 120.161 183.853 119.121C183.213 118.061 182.893 116.831 182.893 115.431C182.893 113.951 183.223 112.641 183.883 111.501C184.543 110.361 185.423 109.471 186.523 108.831C187.643 108.191 188.863 107.871 190.183 107.871ZM190.183 109.791C189.123 109.791 188.353 110.261 187.873 111.201C187.393 112.141 187.153 113.301 187.153 114.681C187.153 116.261 187.413 117.621 187.933 118.761C188.453 119.881 189.253 120.441 190.333 120.441C192.233 120.441 193.183 118.811 193.183 115.551C193.183 113.991 192.943 112.641 192.463 111.501C191.983 110.361 191.223 109.791 190.183 109.791ZM209.588 107.871C211.348 107.871 212.598 108.351 213.338 109.311C214.098 110.251 214.478 111.781 214.478 113.901V117.561C214.478 118.421 214.438 119.221 214.358 119.961C214.998 119.901 215.628 119.871 216.248 119.871V121.941H208.688V120.171C209.428 120.171 209.898 119.981 210.098 119.601C210.298 119.221 210.398 118.601 210.398 117.741L210.368 113.871C210.368 112.671 210.188 111.791 209.828 111.231C209.468 110.671 208.868 110.391 208.028 110.391C207.588 110.391 207.118 110.491 206.618 110.691C206.138 110.871 205.738 111.101 205.418 111.381V117.561C205.418 118.421 205.378 119.221 205.298 119.961C205.898 119.901 206.528 119.871 207.188 119.871V121.941H199.598V120.171C200.318 120.171 200.778 119.981 200.978 119.601C201.198 119.201 201.308 118.581 201.308 117.741V113.151C201.308 112.331 201.348 111.561 201.428 110.841L199.418 110.931V108.861C200.618 108.861 201.588 108.781 202.328 108.621C203.088 108.441 203.598 108.241 203.858 108.021H205.268C205.268 108.061 205.308 108.521 205.388 109.401H205.448C206.008 108.981 206.688 108.621 207.488 108.321C208.308 108.021 209.008 107.871 209.588 107.871ZM227.056 108.291V110.391L223.396 110.481L223.366 117.201C223.366 118.961 223.946 119.841 225.106 119.841C226.026 119.841 226.906 119.291 227.746 118.191L229.126 119.421C228.226 120.681 227.316 121.491 226.396 121.851C225.496 122.211 224.616 122.391 223.756 122.391C220.756 122.391 219.256 120.641 219.256 117.141L219.316 110.571H217.336V108.291C218.236 108.291 219.056 107.931 219.796 107.211C220.536 106.491 221.036 105.721 221.296 104.901H223.426L223.396 108.291H227.056ZM239.999 107.871C240.719 107.871 241.309 108.061 241.769 108.441C242.249 108.821 242.489 109.381 242.489 110.121C242.489 110.621 242.319 111.071 241.979 111.471C241.659 111.851 241.179 112.041 240.539 112.041C240.039 112.041 239.599 111.921 239.219 111.681C238.859 111.441 238.649 111.031 238.589 110.451C238.069 110.451 237.519 110.751 236.939 111.351C236.359 111.951 235.979 112.531 235.799 113.091V117.561C235.799 118.421 235.759 119.221 235.679 119.961C236.279 119.901 236.909 119.871 237.569 119.871V121.941H229.979V120.171C230.699 120.171 231.159 119.981 231.359 119.601C231.579 119.201 231.689 118.581 231.689 117.741V113.151C231.689 112.331 231.729 111.561 231.809 110.841L229.799 110.931V108.861C230.999 108.861 231.969 108.781 232.709 108.621C233.469 108.441 233.979 108.241 234.239 108.021H235.649C235.729 108.541 235.769 109.331 235.769 110.391H235.829C237.149 108.711 238.539 107.871 239.999 107.871ZM250.886 107.871C252.266 107.871 253.506 108.161 254.606 108.741C255.726 109.301 256.596 110.111 257.216 111.171C257.856 112.231 258.176 113.471 258.176 114.891C258.176 116.391 257.866 117.711 257.246 118.851C256.646 119.971 255.796 120.841 254.696 121.461C253.616 122.081 252.376 122.391 250.976 122.391C249.576 122.391 248.316 122.111 247.196 121.551C246.076 120.971 245.196 120.161 244.556 119.121C243.916 118.061 243.596 116.831 243.596 115.431C243.596 113.951 243.926 112.641 244.586 111.501C245.246 110.361 246.126 109.471 247.226 108.831C248.346 108.191 249.566 107.871 250.886 107.871ZM250.886 109.791C249.826 109.791 249.056 110.261 248.576 111.201C248.096 112.141 247.856 113.301 247.856 114.681C247.856 116.261 248.116 117.621 248.636 118.761C249.156 119.881 249.956 120.441 251.036 120.441C252.936 120.441 253.886 118.811 253.886 115.551C253.886 113.991 253.646 112.641 253.166 111.501C252.686 110.361 251.926 109.791 250.886 109.791ZM265.642 117.561C265.642 118.321 265.612 119.121 265.552 119.961C266.192 119.901 266.812 119.871 267.412 119.871V121.941H259.852V120.171C260.592 120.171 261.062 119.981 261.262 119.601C261.462 119.221 261.562 118.601 261.562 117.741V106.521C261.562 105.661 261.602 104.871 261.682 104.151L259.642 104.241V102.171C260.862 102.171 261.842 102.091 262.582 101.931C263.342 101.751 263.842 101.561 264.082 101.361H265.642V117.561ZM276.314 107.871C278.174 107.871 279.724 108.391 280.964 109.431C282.204 110.471 282.814 112.191 282.794 114.591L273.314 114.771C273.314 116.371 273.634 117.641 274.274 118.581C274.934 119.501 275.974 119.961 277.394 119.961C278.054 119.961 278.774 119.791 279.554 119.451C280.334 119.111 281.034 118.591 281.654 117.891L282.944 119.061C281.304 121.281 279.064 122.391 276.224 122.391C274.804 122.391 273.554 122.101 272.474 121.521C271.414 120.921 270.584 120.081 269.984 119.001C269.384 117.901 269.084 116.621 269.084 115.161C269.084 113.881 269.384 112.681 269.984 111.561C270.584 110.441 271.434 109.551 272.534 108.891C273.634 108.211 274.894 107.871 276.314 107.871ZM276.434 109.791C275.614 109.791 274.954 110.061 274.454 110.601C273.974 111.141 273.654 111.891 273.494 112.851H278.804C278.744 110.811 277.954 109.791 276.434 109.791ZM307.289 117.561C307.289 118.421 307.249 119.221 307.169 119.961C307.809 119.901 308.439 119.871 309.059 119.871V121.941H303.569L303.419 120.681H303.389C302.249 121.821 300.889 122.391 299.309 122.391C298.169 122.391 297.159 122.111 296.279 121.551C295.399 120.971 294.709 120.161 294.209 119.121C293.729 118.081 293.489 116.871 293.489 115.491C293.489 114.031 293.789 112.721 294.389 111.561C294.989 110.401 295.829 109.501 296.909 108.861C297.989 108.201 299.239 107.871 300.659 107.871C301.399 107.871 302.249 108.031 303.209 108.351V106.551C303.209 105.691 303.249 104.891 303.329 104.151C302.709 104.211 302.029 104.241 301.289 104.241V102.171C302.489 102.171 303.469 102.091 304.229 101.931C304.989 101.751 305.489 101.561 305.729 101.361H307.289V117.561ZM301.169 109.881C299.929 109.901 299.039 110.401 298.499 111.381C297.979 112.361 297.719 113.591 297.719 115.071C297.719 116.371 297.979 117.501 298.499 118.461C299.019 119.421 299.789 119.901 300.809 119.901C301.289 119.901 301.739 119.781 302.159 119.541C302.599 119.301 302.949 118.981 303.209 118.581V110.391C303.009 110.251 302.719 110.131 302.339 110.031C301.959 109.931 301.569 109.881 301.169 109.881ZM317.974 107.871C319.834 107.871 321.384 108.391 322.624 109.431C323.864 110.471 324.474 112.191 324.454 114.591L314.974 114.771C314.974 116.371 315.294 117.641 315.934 118.581C316.594 119.501 317.634 119.961 319.054 119.961C319.714 119.961 320.434 119.791 321.214 119.451C321.994 119.111 322.694 118.591 323.314 117.891L324.604 119.061C322.964 121.281 320.724 122.391 317.884 122.391C316.464 122.391 315.214 122.101 314.134 121.521C313.074 120.921 312.244 120.081 311.644 119.001C311.044 117.901 310.744 116.621 310.744 115.161C310.744 113.881 311.044 112.681 311.644 111.561C312.244 110.441 313.094 109.551 314.194 108.891C315.294 108.211 316.554 107.871 317.974 107.871ZM318.094 109.791C317.274 109.791 316.614 110.061 316.114 110.601C315.634 111.141 315.314 111.891 315.154 112.851H320.464C320.404 110.811 319.614 109.791 318.094 109.791ZM345.769 100.461C348.069 100.461 349.999 101.011 351.559 102.111C353.139 103.191 354.309 104.571 355.069 106.251C355.829 107.931 356.209 109.661 356.209 111.441C356.209 113.181 355.809 114.901 355.009 116.601C354.209 118.281 353.009 119.671 351.409 120.771C349.829 121.871 347.919 122.421 345.679 122.421C343.279 122.421 341.299 121.891 339.739 120.831C338.179 119.771 337.039 118.411 336.319 116.751C335.599 115.091 335.239 113.321 335.239 111.441C335.239 109.661 335.639 107.931 336.439 106.251C337.239 104.571 338.429 103.191 340.009 102.111C341.609 101.011 343.529 100.461 345.769 100.461ZM345.529 102.651C344.209 102.651 343.129 103.071 342.289 103.911C341.449 104.751 340.849 105.811 340.489 107.091C340.129 108.371 339.949 109.701 339.949 111.081C339.949 112.481 340.149 113.881 340.549 115.281C340.949 116.681 341.599 117.861 342.499 118.821C343.419 119.761 344.579 120.231 345.979 120.231C347.279 120.231 348.339 119.821 349.159 119.001C349.979 118.181 350.569 117.141 350.929 115.881C351.289 114.621 351.469 113.311 351.469 111.951C351.469 109.111 350.969 106.851 349.969 105.171C348.969 103.491 347.489 102.651 345.529 102.651ZM368.466 107.871C369.186 107.871 369.776 108.061 370.236 108.441C370.716 108.821 370.956 109.381 370.956 110.121C370.956 110.621 370.786 111.071 370.446 111.471C370.126 111.851 369.646 112.041 369.006 112.041C368.506 112.041 368.066 111.921 367.686 111.681C367.326 111.441 367.116 111.031 367.056 110.451C366.536 110.451 365.986 110.751 365.406 111.351C364.826 111.951 364.446 112.531 364.266 113.091V117.561C364.266 118.421 364.226 119.221 364.146 119.961C364.746 119.901 365.376 119.871 366.036 119.871V121.941H358.446V120.171C359.166 120.171 359.626 119.981 359.826 119.601C360.046 119.201 360.156 118.581 360.156 117.741V113.151C360.156 112.331 360.196 111.561 360.276 110.841L358.266 110.931V108.861C359.466 108.861 360.436 108.781 361.176 108.621C361.936 108.441 362.446 108.241 362.706 108.021H364.116C364.196 108.541 364.236 109.331 364.236 110.391H364.296C365.616 108.711 367.006 107.871 368.466 107.871ZM382.863 123.531C383.523 123.551 384.053 123.731 384.453 124.071C384.853 124.431 385.053 124.951 385.053 125.631C385.053 126.851 384.353 127.771 382.953 128.391C381.553 129.031 379.983 129.471 378.243 129.711L378.003 128.151C378.943 127.971 379.773 127.741 380.493 127.461C381.233 127.181 381.603 126.781 381.603 126.261C381.603 126.001 381.523 125.811 381.363 125.691C381.203 125.571 381.003 125.511 380.763 125.511C380.563 125.511 380.353 125.551 380.133 125.631C379.913 125.711 379.723 125.811 379.563 125.931L378.453 125.451L379.173 122.391C377.853 122.391 376.653 122.111 375.573 121.551C374.493 120.991 373.633 120.191 372.993 119.151C372.373 118.091 372.063 116.851 372.063 115.431C372.063 114.051 372.383 112.791 373.023 111.651C373.663 110.491 374.553 109.571 375.693 108.891C376.853 108.211 378.153 107.871 379.593 107.871C380.753 107.871 381.753 108.051 382.593 108.411C383.433 108.751 384.063 109.211 384.483 109.791C384.923 110.351 385.143 110.951 385.143 111.591C385.143 112.171 384.963 112.661 384.603 113.061C384.243 113.461 383.753 113.661 383.133 113.661C382.493 113.661 382.013 113.481 381.693 113.121C381.393 112.761 381.243 112.351 381.243 111.891C381.243 111.711 381.273 111.511 381.333 111.291C381.393 111.071 381.473 110.871 381.573 110.691C381.393 110.351 381.113 110.121 380.733 110.001C380.373 109.861 380.003 109.791 379.623 109.791C378.623 109.791 377.813 110.211 377.193 111.051C376.593 111.891 376.293 113.081 376.293 114.621C376.293 116.141 376.593 117.401 377.193 118.401C377.813 119.381 378.783 119.901 380.103 119.961C380.903 119.981 381.693 119.801 382.473 119.421C383.253 119.041 383.913 118.521 384.453 117.861L385.773 119.091C384.553 120.651 383.123 121.651 381.483 122.091L380.793 124.011H380.823C381.063 123.891 381.393 123.781 381.813 123.681C382.233 123.581 382.583 123.531 382.863 123.531ZM393.782 107.871C397.342 107.871 399.122 109.611 399.122 113.091L399.092 117.561C399.092 118.421 399.052 119.221 398.972 119.961C399.612 119.901 400.242 119.871 400.862 119.871V121.941H395.402C395.362 121.701 395.322 121.281 395.282 120.681H395.252C394.092 121.821 392.672 122.391 390.992 122.391C389.772 122.391 388.812 122.051 388.112 121.371C387.412 120.691 387.062 119.821 387.062 118.761C387.062 117.161 387.842 115.951 389.402 115.131C390.982 114.291 392.882 113.821 395.102 113.721V112.311C395.102 110.651 394.432 109.821 393.092 109.821C392.712 109.821 392.342 109.891 391.982 110.031C391.622 110.171 391.322 110.361 391.082 110.601C391.302 110.861 391.412 111.201 391.412 111.621C391.412 112.061 391.252 112.461 390.932 112.821C390.612 113.161 390.152 113.331 389.552 113.331C388.972 113.331 388.512 113.161 388.172 112.821C387.852 112.461 387.692 112.011 387.692 111.471C387.692 110.771 387.962 110.151 388.502 109.611C389.042 109.051 389.772 108.621 390.692 108.321C391.632 108.021 392.662 107.871 393.782 107.871ZM395.072 115.671C393.932 115.771 392.992 116.051 392.252 116.511C391.512 116.951 391.142 117.531 391.142 118.251C391.142 118.731 391.302 119.091 391.622 119.331C391.942 119.571 392.332 119.691 392.792 119.691C393.672 119.691 394.432 119.371 395.072 118.731V115.671ZM420.898 107.871C422.498 107.871 423.688 108.311 424.468 109.191C425.248 110.051 425.638 111.501 425.638 113.541V117.561C425.638 118.421 425.598 119.221 425.518 119.961C426.118 119.901 426.748 119.871 427.408 119.871V121.941H420.088V120.171C420.688 120.171 421.078 119.981 421.258 119.601C421.438 119.201 421.528 118.581 421.528 117.741V113.571C421.508 112.451 421.308 111.651 420.928 111.171C420.568 110.691 420.038 110.431 419.338 110.391C418.438 110.391 417.578 110.691 416.758 111.291C416.938 112.031 417.028 112.901 417.028 113.901V117.561C417.028 118.421 416.988 119.221 416.908 119.961C417.508 119.901 418.138 119.871 418.798 119.871V121.941H411.328V120.171C412.008 120.171 412.438 119.981 412.618 119.601C412.818 119.201 412.918 118.581 412.918 117.741L412.888 113.481C412.888 112.341 412.708 111.541 412.348 111.081C412.008 110.621 411.498 110.391 410.818 110.391C409.958 110.391 409.138 110.721 408.358 111.381V117.561C408.358 118.421 408.318 119.221 408.238 119.961C408.838 119.901 409.418 119.871 409.978 119.871V121.941H402.568V120.171C403.288 120.171 403.748 119.981 403.948 119.601C404.148 119.221 404.248 118.601 404.248 117.741V113.151C404.248 112.331 404.288 111.561 404.368 110.841L402.358 110.931V108.861C403.558 108.861 404.538 108.781 405.298 108.621C406.058 108.441 406.558 108.241 406.798 108.021H408.208C408.208 108.061 408.248 108.521 408.328 109.401H408.388C408.988 108.961 409.658 108.601 410.398 108.321C411.158 108.021 411.898 107.871 412.618 107.871C414.318 107.871 415.508 108.471 416.188 109.671C416.888 109.131 417.658 108.701 418.498 108.381C419.338 108.041 420.138 107.871 420.898 107.871ZM435.103 107.871C436.963 107.871 438.513 108.391 439.753 109.431C440.993 110.471 441.603 112.191 441.583 114.591L432.103 114.771C432.103 116.371 432.423 117.641 433.063 118.581C433.723 119.501 434.763 119.961 436.183 119.961C436.843 119.961 437.563 119.791 438.343 119.451C439.123 119.111 439.823 118.591 440.443 117.891L441.733 119.061C440.093 121.281 437.853 122.391 435.013 122.391C433.593 122.391 432.343 122.101 431.263 121.521C430.203 120.921 429.373 120.081 428.773 119.001C428.173 117.901 427.873 116.621 427.873 115.161C427.873 113.881 428.173 112.681 428.773 111.561C429.373 110.441 430.223 109.551 431.323 108.891C432.423 108.211 433.683 107.871 435.103 107.871ZM435.223 109.791C434.403 109.791 433.743 110.061 433.243 110.601C432.763 111.141 432.443 111.891 432.283 112.851H437.593C437.533 110.811 436.743 109.791 435.223 109.791ZM453.719 107.871C455.479 107.871 456.729 108.351 457.469 109.311C458.229 110.251 458.609 111.781 458.609 113.901V117.561C458.609 118.421 458.569 119.221 458.489 119.961C459.129 119.901 459.759 119.871 460.379 119.871V121.941H452.819V120.171C453.559 120.171 454.029 119.981 454.229 119.601C454.429 119.221 454.529 118.601 454.529 117.741L454.499 113.871C454.499 112.671 454.319 111.791 453.959 111.231C453.599 110.671 452.999 110.391 452.159 110.391C451.719 110.391 451.249 110.491 450.749 110.691C450.269 110.871 449.869 111.101 449.549 111.381V117.561C449.549 118.421 449.509 119.221 449.429 119.961C450.029 119.901 450.659 119.871 451.319 119.871V121.941H443.729V120.171C444.449 120.171 444.909 119.981 445.109 119.601C445.329 119.201 445.439 118.581 445.439 117.741V113.151C445.439 112.331 445.479 111.561 445.559 110.841L443.549 110.931V108.861C444.749 108.861 445.719 108.781 446.459 108.621C447.219 108.441 447.729 108.241 447.989 108.021H449.399C449.399 108.061 449.439 108.521 449.519 109.401H449.579C450.139 108.981 450.819 108.621 451.619 108.321C452.439 108.021 453.139 107.871 453.719 107.871ZM471.187 108.291V110.391L467.527 110.481L467.497 117.201C467.497 118.961 468.077 119.841 469.237 119.841C470.157 119.841 471.037 119.291 471.877 118.191L473.257 119.421C472.357 120.681 471.447 121.491 470.527 121.851C469.627 122.211 468.747 122.391 467.887 122.391C464.887 122.391 463.387 120.641 463.387 117.141L463.447 110.571H461.467V108.291C462.367 108.291 463.187 107.931 463.927 107.211C464.667 106.491 465.167 105.721 465.427 104.901H467.557L467.527 108.291H471.187ZM481.13 107.871C482.51 107.871 483.75 108.161 484.85 108.741C485.97 109.301 486.84 110.111 487.46 111.171C488.1 112.231 488.42 113.471 488.42 114.891C488.42 116.391 488.11 117.711 487.49 118.851C486.89 119.971 486.04 120.841 484.94 121.461C483.86 122.081 482.62 122.391 481.22 122.391C479.82 122.391 478.56 122.111 477.44 121.551C476.32 120.971 475.44 120.161 474.8 119.121C474.16 118.061 473.84 116.831 473.84 115.431C473.84 113.951 474.17 112.641 474.83 111.501C475.49 110.361 476.37 109.471 477.47 108.831C478.59 108.191 479.81 107.871 481.13 107.871ZM481.13 109.791C480.07 109.791 479.3 110.261 478.82 111.201C478.34 112.141 478.1 113.301 478.1 114.681C478.1 116.261 478.36 117.621 478.88 118.761C479.4 119.881 480.2 120.441 481.28 120.441C483.18 120.441 484.13 118.811 484.13 115.551C484.13 113.991 483.89 112.641 483.41 111.501C482.93 110.361 482.17 109.791 481.13 109.791ZM495.946 107.871C496.506 107.871 497.106 107.951 497.746 108.111C498.406 108.271 498.956 108.501 499.396 108.801H499.426L499.396 107.991H501.586V112.821H499.726C499.546 111.901 499.096 111.171 498.376 110.631C497.676 110.071 496.806 109.791 495.766 109.791C495.226 109.791 494.766 109.911 494.386 110.151C494.026 110.371 493.846 110.731 493.846 111.231C493.846 111.751 494.066 112.141 494.506 112.401C494.966 112.641 495.726 112.911 496.786 113.211L497.386 113.391C499.026 113.931 500.276 114.571 501.136 115.311C502.016 116.031 502.456 116.991 502.456 118.191C502.456 119.531 501.936 120.571 500.896 121.311C499.876 122.031 498.646 122.391 497.206 122.391C496.366 122.391 495.556 122.291 494.776 122.091C493.996 121.891 493.376 121.631 492.916 121.311H492.886L492.976 122.121H490.786L490.666 117.441H492.556C492.656 118.281 493.116 118.991 493.936 119.571C494.776 120.131 495.806 120.411 497.026 120.411C497.566 120.411 498.036 120.301 498.436 120.081C498.836 119.841 499.036 119.501 499.036 119.061C499.036 118.721 498.906 118.441 498.646 118.221C498.406 118.001 498.106 117.821 497.746 117.681C497.386 117.521 496.696 117.261 495.676 116.901C494.476 116.461 493.556 116.091 492.916 115.791C492.296 115.491 491.736 115.051 491.236 114.471C490.756 113.891 490.516 113.151 490.516 112.251C490.516 111.511 490.706 110.811 491.086 110.151C491.486 109.471 492.096 108.921 492.916 108.501C493.736 108.081 494.746 107.871 495.946 107.871Z" fill="white"/>
</svg>
